<?xml version="1.0" encoding="UTF-8" standalone="no" ?>
<!DOCTYPE svg PUBLIC "-//W3C//DTD SVG 1.1//EN" "http://www.w3.org/Graphics/SVG/1.1/DTD/svg11.dtd">
<svg xmlns="http://www.w3.org/2000/svg" xmlns:xlink="http://www.w3.org/1999/xlink" version="1.1" width="1080" height="1080" viewBox="0 0 1080 1080" xml:space="preserve">
<desc>Created with Fabric.js 5.2.4</desc>
<defs>
</defs>
<g transform="matrix(1 0 0 1 540 540)" id="0905bf17-fffc-4a62-a182-b46d2087f872"  >
<rect style="stroke: none; stroke-width: 1; stroke-dasharray: none; stroke-linecap: butt; stroke-dashoffset: 0; stroke-linejoin: miter; stroke-miterlimit: 4; fill: rgb(255,255,255); fill-rule: nonzero; opacity: 1; visibility: hidden;" vector-effect="non-scaling-stroke"  x="-540" y="-540" rx="0" ry="0" width="1080" height="1080" />
</g>
<g transform="matrix(1 0 0 1 540 540)" id="1255de5a-697e-476b-a110-6832a71460e4"  >
</g>
<g transform="matrix(2.01 0 0 2.01 537.71 537.71)"  >
<g style="" vector-effect="non-scaling-stroke"   >
		<g transform="matrix(0.5 0 0 0.5 0 0)"  >
<rect style="stroke: none; stroke-width: 1; stroke-dasharray: none; stroke-linecap: butt; stroke-dashoffset: 0; stroke-linejoin: miter; stroke-miterlimit: 4; fill: rgb(230,255,43); fill-rule: nonzero; opacity: 1;" vector-effect="non-scaling-stroke"  x="-540" y="-540" rx="0" ry="0" width="1080" height="1080" />
</g>
		<g transform="matrix(1 0 0 1 -10 15)"  >
<path style="stroke: none; stroke-width: 1; stroke-dasharray: none; stroke-linecap: butt; stroke-dashoffset: 0; stroke-linejoin: miter; stroke-miterlimit: 4; fill: rgb(0,0,0); fill-rule: nonzero; opacity: 1;" vector-effect="non-scaling-stroke"  transform=" translate(-247.43, -312.99)" d="M 425.612823 397.64502 C 422.389832 400.648743 423.913605 405.001678 421.608307 408.051025 C 418.607208 412.020752 415.465088 415.998749 413.213196 420.397827 C 407.065552 432.406982 396.753235 441.293549 389.658051 452.44339 C 385.349274 459.214447 379.765045 464.808838 373.98407 469.387695 C 359.358704 480.971649 343.403351 490.790314 323.920502 492.324768 C 319.61264 492.664032 315.38916 493.274384 311.403778 495.315796 C 308.023712 497.047089 304.352814 497.143982 300.779327 495.437866 C 296.640411 493.461761 294.841248 488.304474 297.963959 485.064667 C 301.318817 481.584137 303.017914 477.310455 305.486023 473.411316 C 306.281525 472.154633 307.101471 470.565918 308.319031 469.983002 C 314.150848 467.19101 314.920166 460.171478 319.801727 456.624207 C 321.045441 455.720459 320.523804 454.267792 320.138672 452.927277 C 316.829681 441.410675 314.645416 429.427155 310.023071 418.469849 C 304.812042 406.117065 305.201355 392.712585 300.788422 380.429138 C 296.250671 367.79834 296.234009 354.207886 292.170258 341.644958 C 287.322968 326.659637 286.412933 311.024902 282.779816 295.88504 C 281.734039 291.527161 279.208923 287.733887 278.600525 283.133728 C 276.50528 267.291595 275.694489 251.292496 273.560089 235.518814 C 272.213074 225.564072 270.173767 215.72934 270.804779 204.42659 C 265.861664 207.644165 262.891083 211.127182 261.280396 215.376541 C 260.263672 218.058853 259.250366 220.676239 257.559448 222.918777 C 244.30867 240.492279 234.819824 260.580475 221.228561 277.851959 C 215.461258 285.180908 217.493011 292.008331 219.78569 298.96936 C 221.396942 303.861542 222.641815 308.828461 224.181488 313.71106 C 229.819992 331.591766 235.370438 349.492462 240.119232 367.632294 C 241.552078 373.10556 242.902679 378.60495 244.106781 384.132507 C 246.369659 394.520721 249.136139 405.009766 252.661026 414.776001 C 258.135864 429.944855 261.673126 445.731232 267.911041 460.618317 C 269.958191 465.503906 271.664398 470.585358 272.950531 475.721436 C 274.16449 480.569183 273.115967 485.290619 270.356537 489.583649 C 268.099884 493.094482 265.495911 493.290741 262.50705 490.629822 C 257.120331 485.834167 254.150146 479.474579 251.484787 473.003815 C 244.017471 454.875305 235.921371 436.954376 229.534058 418.447418 C 223.579376 401.193939 217.676743 383.888855 212.269089 366.424164 C 208.744446 355.040894 205.421219 343.478912 200.249741 332.603058 C 198.349045 328.605743 197.420227 324.146332 195.939697 319.562103 C 191.740479 320.317352 188.661758 322.757599 186.684708 326.256958 C 179.07515 339.725739 168.739563 351.519928 161.98024 365.422821 C 157.969925 373.671509 152.355637 380.857727 148.28624 388.965454 C 141.612106 402.262878 135.984344 416.137604 128.58757 429.005676 C 121.083961 442.059631 116.293732 456.236328 109.755646 469.670044 C 103.37336 482.783691 99.036766 496.876251 93.144196 510.249176 C 85.657364 527.240173 79.402321 544.772278 68.302391 560.13623 C 62.517666 568.143127 49.446651 565.309692 45.37492 557.420044 C 43.390461 553.57489 41.875233 549.448303 39.567909 545.817444 C 35.354858 539.187683 37.345737 532.567566 39.378166 526.157654 C 43.943768 511.758484 48.265343 497.350525 52.026237 482.682465 C 55.263577 470.056305 57.482262 457.009399 62.227699 444.743469 C 66.396156 433.968872 67.069633 422.34256 70.576225 411.376678 C 75.64357 395.529968 77.841591 378.963898 81.856781 362.819305 C 87.0541 341.921509 92.411041 320.894775 94.827736 299.341553 C 95.323372 294.921234 97.216827 290.714783 98.442673 286.411499 C 101.806007 274.604523 104.067909 262.514374 105.511116 250.33989 C 105.985458 246.338516 108.194504 243.288971 109.176147 239.609268 C 111.848793 229.590805 110.992363 218.902725 114.676842 209.220551 C 119.596924 196.291382 119.485863 182.438812 122.931847 169.315704 C 125.629341 159.043076 127.559502 148.665512 129.607819 138.27562 C 131.382263 129.274902 132.113678 120.153305 133.600601 111.134453 C 135.468674 99.803604 136.80925 88.507027 135.941589 76.96244 C 135.486359 70.905235 140.085846 66.896584 144.528427 64.3554 C 150.001022 61.225029 156.670502 60.424706 162.964966 61.527004 C 171.301147 62.986855 175.967422 69.679054 176.343445 79.581947 C 176.937531 95.227707 177.299805 110.882965 177.985779 126.524315 C 178.593094 140.372284 181.770813 153.850815 184.340271 167.412781 C 186.566223 179.161667 188.636765 190.939911 190.842026 202.69278 C 192.614868 212.141068 197.565247 220.597488 198.811493 231.504501 C 204.778091 225.218826 208.647308 219.250656 212.781601 213.51619 C 224.764557 196.895248 234.433411 178.800812 245.356796 161.505783 C 251.417969 151.909088 256.851044 141.734146 262.019684 131.480804 C 267.156891 121.289833 274.605408 112.332489 287.791748 112.058594 C 298.810516 111.82972 305.546204 104.273979 313.280975 97.997818 C 325.281616 88.260216 337.963959 79.235573 351.758423 72.308723 C 365.692169 65.311958 380.935089 62.897827 396.402924 66.097946 C 408.395294 68.579025 416.241119 80.088371 417.029694 91.413605 C 418.772522 116.443726 410.931091 138.9888 400.567688 161.460388 C 392.740509 178.43251 383.871338 194.74202 375.091156 211.156601 C 372.541138 215.923859 368.875336 220.218811 368.76889 226.001007 C 371.145477 227.540421 373.521423 226.782715 375.773193 226.677094 C 387.740631 226.115814 399.59494 227.062637 410.439941 232.317169 C 419.971283 236.935226 429.245209 242.257294 438.050415 248.140182 C 443.844696 252.011459 445.528442 259.376923 448.915375 265.237274 C 458.601196 281.996307 459.394806 300.565521 455.788696 318.574341 C 453.43811 330.313019 452.923126 342.973602 445.913544 353.787384 C 443.871796 356.937225 444.065521 361.818481 442.203674 365.526001 C 436.851929 376.183075 431.300934 386.740143 425.612823 397.64502 M 233.996201 414.884369 C 236.281097 425.611725 242.276001 434.894714 245.780228 445.156555 C 248.45433 452.987366 251.223907 460.805969 254.430359 468.428345 C 257.172211 474.94635 258.071381 482.636932 264.982849 486.826752 C 266.259277 486.539032 267.208954 485.655884 267.103088 484.432098 C 266.576721 478.346863 266.684784 472.05014 265.048309 466.257629 C 263.05188 459.190948 260.092926 452.375946 258.369202 445.176758 C 257.693298 442.353882 256.378265 439.948456 252.65538 439.867493 C 255.487457 433.884186 252.16539 429.050507 250.820969 424.106842 C 247.221802 410.872101 242.980118 397.813416 239.20842 384.623383 C 238.207428 381.122803 236.560074 378.845856 232.28981 378.891479 C 233.73851 376.48053 236.630188 375.413879 235.488464 372.557007 C 233.285187 367.043945 232.877075 360.783813 230.871216 355.605469 C 226.743759 344.94989 225.494583 333.645813 221.558838 323.069366 C 219.243057 316.846252 218.756073 310.089844 216.313065 304.007446 C 214.507675 299.512482 212.801529 294.942261 211.894592 290.322327 C 210.774384 284.615997 211.328949 278.848633 216.381241 274.383545 C 218.553513 272.463776 219.872208 269.570038 221.547806 267.097809 C 227.484222 258.339111 232.890778 249.154221 239.51535 240.952438 C 243.999481 235.400696 245.931961 228.605499 250.726868 223.107315 C 256.655273 216.309341 260.495209 207.688019 265.215454 199.841263 C 265.724884 198.994431 265.901245 197.879135 266.555939 197.201096 C 268.250519 195.446167 269.797607 193.215897 272.780945 193.814453 C 275.614227 194.382889 275.155304 197.127563 275.947235 198.96315 C 276.444702 200.116226 276.326355 201.572647 276.33255 202.893692 C 276.365448 209.892776 275.055023 217.217316 276.708313 223.801788 C 278.43512 230.678894 278.102142 237.336487 278.40863 244.11853 C 278.445557 244.935043 278.635742 245.773819 278.912445 246.545776 C 281.346405 253.335831 279.77655 260.762756 282.31308 267.555786 C 283.157227 269.816406 280.694794 273.173523 284.879761 274.493835 C 285.514008 274.69397 285.466187 277.581421 285.450165 279.223083 C 285.391449 285.246002 287.925934 291.214172 287.877777 296.756256 C 287.767029 309.49704 292.886658 320.959991 295.178925 332.981171 C 296.702576 340.971558 298.388458 349.331207 299.892975 357.391205 C 302.060486 369.003387 306.930084 379.804474 308.070251 391.801422 C 309.09079 402.538696 313.609924 412.930603 316.40152 423.523376 C 316.948151 425.597504 318.911224 425.33905 319.689423 426.181488 C 317.253326 432.653992 323.311859 437.423676 322.442566 443.383881 C 321.71814 448.351044 326.915161 450.285858 329.000916 453.940552 C 322.969727 460.971649 316.951172 467.721344 311.272095 474.745514 C 309.128967 477.396301 307.832947 480.641541 305.028076 482.923798 C 303.38385 484.261688 300.533325 485.868164 301.701111 488.463776 C 303.079407 491.527283 306.155609 489.041351 308.435394 489.429688 C 309.014984 489.528381 309.677063 488.969482 310.325958 488.861633 C 316.832092 487.780273 323.351532 485.869049 329.850677 485.931091 C 335.511169 485.985046 339.650146 482.533264 344.712341 481.350159 C 349.41098 480.252045 353.539886 475.786194 358.946411 474.852997 C 359.406921 474.773499 359.808472 474.364899 360.242706 474.11853 C 364.152222 471.900574 367.370728 468.687775 370.977875 466.073334 C 376.624695 461.98053 381.20285 456.297089 385.818939 450.930634 C 390.529907 445.453949 394.536438 439.437073 398.453705 433.317871 C 405.133118 422.883942 412.781921 413.068787 418.710999 402.14328 C 420.917206 398.077881 423.627563 394.052612 424.691711 389.665527 C 425.792419 385.127777 427.798187 381.473907 430.566711 377.938751 C 432.435944 375.55188 433.647217 372.721344 433.455353 369.635132 C 433.353333 367.994293 433.602661 366.866516 434.799286 365.687439 C 439.868347 360.692535 439.833374 353.22879 443.434784 347.492371 C 444.606842 345.625458 441.985565 344.339264 442.264221 342.43335 C 444.719299 342.763855 445.634094 341.715637 445.645874 339.361938 C 445.655334 337.470459 446.045441 335.729919 446.913605 333.805481 C 449.750061 327.517883 450.974365 320.660126 451.539642 313.804382 C 451.962677 308.673615 451.424164 303.47113 451.643158 298.314575 C 452.317993 282.424042 447.936279 268.177765 437.585114 256.08078 C 433.893555 251.766632 429.667999 247.83609 424.390778 245.160965 C 422.664948 244.286102 421.122467 246.222458 419.7948 244.655334 C 412.34137 235.857498 401.779572 233.291 391.447876 233.839233 C 382.640625 234.30658 373.866943 232.631775 365.074829 234.200806 C 361.130035 234.904785 359.280975 231.578918 360.489624 227.665146 C 362.043488 222.633606 365.579193 218.788849 368.069305 214.326859 C 379.189178 194.401108 389.730377 174.192551 398.568604 153.114563 C 406.777191 133.538345 413.683838 113.809898 411.678375 92.010468 C 410.778351 82.22718 407.761993 74.649353 397.465424 71.263336 C 392.856903 69.747833 388.193909 70.076744 383.735901 69.981789 C 377.266235 69.843994 370.700684 71.469292 364.274353 72.812927 C 357.955444 74.134109 353.170197 79.058159 346.888489 80.76001 C 344.22406 81.481865 342.597015 84.345505 339.783051 85.257881 C 329.657654 88.540871 323.334351 97.380371 314.617554 102.801582 C 311.59787 104.679619 309.149963 108.010971 306.738434 111.022026 C 304.043121 114.387474 300.428772 116.938148 295.57135 116.344597 C 290.275299 115.697441 285.547791 118.274872 280.502502 119.070633 C 276.814728 119.652267 274.134125 121.79361 272.238495 124.943329 C 264.923737 137.097321 257.566589 149.22641 250.345306 161.435776 C 247.498581 166.248886 245.573593 171.726364 242.160019 176.059235 C 235.80069 184.131149 232.427612 193.95697 225.679352 201.840073 C 218.751968 209.932419 215.507492 220.630554 208.18161 228.612869 C 207.156693 229.729599 205.949722 231.059402 207.680435 232.928284 C 208.979187 234.330688 207.682281 235.328232 206.272797 235.730469 C 204.200363 236.321884 202.087814 236.772049 199.994751 237.292053 C 197.200287 237.986313 194.908295 236.456955 194.387512 234.279755 C 193.230087 229.44104 190.371216 225.031769 189.931183 220.204025 C 188.46785 204.14946 181.316757 189.510208 178.951721 173.605911 C 177.932739 166.753555 177.273163 159.642792 176.069138 152.759216 C 174.573044 144.205597 172.071732 135.330917 173.58844 126.319557 C 173.717499 125.552856 173.518112 124.599144 173.150223 123.901665 C 170.533218 118.939995 169.612732 113.817978 170.58136 108.192787 C 171.657913 101.940926 169.73674 95.720222 169.744583 89.408714 C 169.752487 83.057281 170.540024 76.523109 168.943375 69.57206 C 166.310135 70.414871 163.805283 70.801186 162.329361 68.528069 C 160.7332 66.069809 158.296829 65.813637 156.165359 66.488251 C 151.810379 67.866608 147.011612 68.098625 143.321671 70.84082 C 142.37175 72.533867 145.189423 73.787903 143.63176 75.118843 C 138.560593 79.451889 140.445007 85.238579 140.418091 90.511955 C 140.36795 100.330505 139.914078 110.287079 137.786316 119.682549 C 135.414612 130.155029 134.17424 140.775253 132.716156 151.277664 C 131.206787 162.14946 127.175453 172.304321 125.761002 183.15448 C 124.858978 190.073883 122.181274 196.775085 122.346863 203.930573 C 122.393394 205.941254 121.768471 207.765869 121.255081 209.695831 C 120.019386 214.341064 116.475227 218.067108 116.327782 223.108521 C 116.066437 232.044617 114.420555 240.806671 112.330299 249.45961 C 111.441765 253.137878 108.888359 256.563293 108.624908 260.214264 C 107.933243 269.800018 104.78553 278.836212 103.059975 288.173737 C 101.417267 297.062988 98.582062 305.853821 96.783943 314.676483 C 94.484558 325.958649 91.732719 337.187439 89.936462 348.616943 C 88.134026 360.085724 84.87722 371.351685 81.845528 382.595367 C 77.443085 398.922729 74.56649 415.591614 70.620399 432.024567 C 68.410164 441.228821 65.453377 450.268372 63.927673 459.769104 C 62.003647 471.750305 57.486061 483.360779 53.60461 494.969818 C 49.153961 508.28125 46.242714 521.981934 42.614052 535.499878 C 42.085461 537.468994 42.931747 539.370789 43.204708 541.310547 C 44.084797 547.564941 49.710766 550.992859 51.675358 556.537231 C 52.195339 558.004639 60.193401 559.856873 61.225407 558.918884 C 66.678177 553.963196 70.074638 547.573303 73.545731 541.225586 C 76.264404 536.253906 77.214424 530.620178 80.437622 525.707581 C 84.443619 519.601746 87.563225 512.785767 90.199104 505.942719 C 93.401123 497.629822 97.359108 489.65918 100.176048 481.12146 C 102.685493 473.515747 104.408348 465.498596 108.282959 458.312958 C 109.977592 455.170166 112.52372 452.676758 113.892937 449.200012 C 116.405792 442.819244 119.67495 436.7453 122.300438 430.372253 C 123.541382 427.359985 123.968979 423.196716 125.567101 421.554657 C 129.646912 417.362701 130.054916 411.711609 133.162521 407.300507 C 135.610291 403.826019 137.871277 400.09079 136.902969 395.117798 C 138.569046 395.484833 139.770142 395.74942 141.345657 396.096497 C 144.467377 385.760223 151.403091 377.65448 155.899109 368.145416 C 160.472549 358.472595 167.514603 349.997467 173.000519 340.71698 C 178.565277 331.303101 184.847519 322.379944 190.763397 313.208344 C 191.882828 311.472839 193.242691 309.637451 195.336899 309.757233 C 197.745239 309.894989 198.675766 312.089722 199.440186 314.223663 C 200.817886 318.069702 201.828156 322.083313 203.261719 325.837128 C 206.865234 335.273071 209.856201 344.939636 213.517731 354.294342 C 216.822723 362.738068 219.251297 371.431396 222.399307 379.89856 C 226.586304 391.160217 229.057785 403.013824 233.996201 414.884369 z" stroke-linecap="round" />
</g>
		<g transform="matrix(1 0 0 1 108.28 61.13)"  >
<path style="stroke: none; stroke-width: 1; stroke-dasharray: none; stroke-linecap: butt; stroke-dashoffset: 0; stroke-linejoin: miter; stroke-miterlimit: 4; fill: rgb(0,0,0); fill-rule: nonzero; opacity: 1;" vector-effect="non-scaling-stroke"  transform=" translate(-365.7, -359.12)" d="M 328.750122 440.110901 C 335.434418 427.10611 337.870209 413.854187 335.79187 399.641541 C 334.885956 393.446472 336.081848 387.052643 334.740753 380.782013 C 334.220551 378.34964 334.419403 375.906128 331.379852 376.982635 C 329.528625 353.606232 322.898468 331.555023 317.283386 309.181854 C 316.330597 309.454681 315.5159 309.687988 313.3284 310.314392 C 319.073761 305.030396 313.483368 298.955017 317.341614 294.274719 C 319.325623 292.601166 324.040924 294.401703 324.162689 289.332581 C 324.165375 289.221252 324.972778 289.104248 325.411743 289.032257 C 329.692566 288.3302 332.883301 285.896454 335.466003 282.583313 C 336.086029 281.787903 336.544464 280.635162 337.61026 280.711975 C 344.72821 281.224976 350.028137 276.1604 356.572479 274.642395 C 365.92926 272.472015 375.534637 269.402435 384.778015 270.359375 C 394.591461 271.375336 404.617584 274.637817 412.840973 281.188538 C 414.454254 282.473663 415.995056 283.988373 416.26355 285.937317 C 417.310883 293.540192 419.266418 301.173431 417.103668 308.855713 C 416.452057 311.170319 416.266235 313.436951 416.379608 315.745728 C 416.539001 318.991211 415.718414 322.048798 414.591461 324.969421 C 409.769318 337.466278 404.955017 349.970764 399.823792 362.342255 C 396.126984 371.25531 390.467255 379.101868 385.048767 387.015991 C 383.234711 389.665588 381.975464 392.017883 383.883148 396.481201 C 379.504852 393.151215 378.41037 395.292419 376.820435 398.114319 C 371.889587 406.865631 364.138153 413.366333 357.4664 420.671875 C 351.45639 427.252869 346.115295 434.348328 340.211395 440.986176 C 339.106873 442.228058 338.130249 443.599365 336.929047 444.735992 C 334.968475 446.591095 333.211639 449.220428 329.841827 447.486267 C 326.345306 445.686951 328.195038 442.979248 328.750122 440.110901 M 412.907562 301.718323 C 414.908691 290.375519 410.56955 281.90271 400.503937 278.696655 C 396.613281 277.457458 392.05658 278.197357 388.259735 276.797607 C 378.716888 273.27951 369.38681 276.205963 360.228088 277.51889 C 347.652985 279.321564 337.312775 286.871338 326.840851 293.662872 C 323.02829 296.135529 321.658966 299.352875 322.426941 303.865601 C 323.595825 310.7341 324.513916 317.652985 325.617126 324.52417 C 327.305023 335.036804 331.264557 344.956451 332.53717 355.51239 C 333.587006 364.220245 336.699677 372.494415 338.518188 380.983429 C 341.262085 393.792236 342.365234 406.964081 339.62973 420.137238 C 338.920258 423.553833 338.808289 427.238556 339.817413 431.189758 C 340.883514 430.404388 341.598938 429.988647 342.176941 429.430603 C 343.85321 427.812103 345.506256 426.16687 347.112122 424.478577 C 365.69339 404.944122 380.718201 382.912842 394.649292 359.850586 C 405.454956 341.962311 411.522858 323.19812 412.907562 301.718323 z" stroke-linecap="round" />
</g>
		<g transform="matrix(1 0 0 1 90.67 -129.06)"  >
<path style="stroke: none; stroke-width: 1; stroke-dasharray: none; stroke-linecap: butt; stroke-dashoffset: 0; stroke-linejoin: miter; stroke-miterlimit: 4; fill: rgb(0,0,0); fill-rule: nonzero; opacity: 1;" vector-effect="non-scaling-stroke"  transform=" translate(-348.1, -168.93)" d="M 329.588837 108.504799 C 339.908844 101.922531 350.250519 96.204163 361.229797 91.585144 C 368.889404 88.362709 376.73938 87.819916 384.90686 87.430412 C 392.831604 87.05249 395.101013 94.048958 394.114746 99.915749 C 391.076904 117.98658 383.433228 134.458862 376.538086 151.174744 C 374.157959 156.944885 370.821045 162.32048 367.917358 167.874283 C 367.763428 168.168686 367.423309 168.444382 367.423065 168.729004 C 367.417175 175.724533 360.929901 178.993301 358.339386 184.56665 C 352.01535 198.172333 342.587097 209.93808 334.984985 222.797272 C 334.076416 224.334137 333.18631 225.971146 333.128448 227.898468 C 333.080688 229.48941 332.617767 230.835617 330.627869 230.995453 C 330.020172 231.044281 329.041321 231.38327 328.91626 231.796402 C 326.923889 238.377762 318.788483 241.280624 318.8974 248.88385 C 317.24472 249.358658 315.844147 249.878738 314.397064 250.15564 C 309.236786 251.143005 308.783752 249.663818 307.449249 244.748459 C 304.293793 233.12616 307.640961 220.996841 303.880829 209.459213 C 302.848602 206.291977 303.580536 202.520233 303.658295 199.029358 C 303.73288 195.679749 303.624664 192.363678 302.491577 189.186661 C 301.663727 186.865417 301.534637 184.692551 302.874207 182.496155 C 303.877777 180.850708 303.625885 178.950394 303.629547 177.125427 C 303.647949 167.964401 303.389557 158.79245 303.762024 149.646072 C 304.022797 143.243561 305.496063 136.931839 306.13678 130.519058 C 306.842682 123.45462 312.893951 119.482635 318.390686 115.707092 C 321.946533 113.264687 325.644958 111.029785 329.588837 108.504799 M 384.78891 121.346497 C 387.871796 114.097824 389.585083 106.503151 390.511841 98.709152 C 391.239288 92.5914 389.488281 90.532707 383.271912 90.099922 C 377.828766 89.72097 372.629761 91.139679 367.648315 92.870392 C 347.945923 99.715622 330.610168 110.849495 314.023865 123.248299 C 311.646545 125.025414 310.501862 127.554321 309.930969 130.448593 C 308.771393 136.327484 308.310577 142.288727 307.54303 148.214783 C 305.330231 165.29953 304.984558 182.534317 306.340424 199.544159 C 307.498566 214.073395 310.204163 228.492844 309.973755 243.172104 C 309.9487 244.768509 309.946381 246.588943 311.927246 247.301834 C 313.708282 247.155243 314.585632 245.814651 315.428589 244.649887 C 343.103699 206.409119 368.423828 166.833588 384.78891 121.346497 z" stroke-linecap="round" />
</g>
		<g transform="matrix(1 0 0 1 -108.27 -17.99)"  >
<path style="stroke: none; stroke-width: 1; stroke-dasharray: none; stroke-linecap: butt; stroke-dashoffset: 0; stroke-linejoin: miter; stroke-miterlimit: 4; fill: rgb(0,0,0); fill-rule: nonzero; opacity: 1;" vector-effect="non-scaling-stroke"  transform=" translate(-149.15, -280)" d="M 160.809509 300.799744 C 154.508392 311.524384 148.301224 321.919098 141.892975 332.116394 C 136.106567 341.324188 131.089401 351.022308 124.763397 359.895172 C 123.432571 361.76178 122.337975 364.70401 119.680435 363.73111 C 116.863838 362.700012 117.008087 359.227722 117.899765 357.136719 C 121.058472 349.729645 121.497108 341.671906 123.104332 334.016602 C 125.132248 324.357574 127.459839 314.764832 129.637421 305.139954 C 131.445068 297.150116 133.925613 289.257904 135.010788 281.17511 C 136.029938 273.584137 138.276016 266.320984 139.935364 258.940125 C 142.140701 249.130569 144.041428 239.243988 146.39563 229.459641 C 147.892471 223.238632 149.644775 217.053436 149.855759 210.492386 C 150.007217 205.782089 152.489502 201.409271 154.588654 197.177139 C 155.675751 194.985413 159.037888 196.227158 160.02449 199.325531 C 163.53476 210.349228 166.818069 221.44574 170.384995 232.450607 C 173.158875 241.008774 175.965347 249.57399 179.242905 257.945953 C 182.139328 265.344421 181.568344 271.445282 176.280518 277.88446 C 170.533188 284.883148 166.043839 292.914948 160.809509 300.799744 M 135.341293 335.876831 C 148.172806 314.864716 161.152649 293.947296 174.832458 273.470978 C 177.415924 269.603973 178.400711 265.732666 176.545303 260.849457 C 171.118561 246.566986 166.420532 232.024063 162.007111 217.379669 C 160.504791 212.39473 159.557617 206.971558 156.085373 201.470917 C 144.476578 253.718704 133.109253 304.8797 121.741936 356.04071 C 122.186646 356.194092 122.631355 356.347504 123.076065 356.500916 C 127.026489 349.825745 130.976913 343.150574 135.341293 335.876831 z" stroke-linecap="round" />
</g>
</g>
</g>
</svg>